<svg fill="none" height="32" viewBox="0 0 213 32" width="213" xmlns="http://www.w3.org/2000/svg" xmlns:xlink="http://www.w3.org/1999/xlink"><clipPath id="a"><path d="m0 0h213v32h-213z"/></clipPath><g clip-path="url(#a)"><path d="m36.9297 0c7.7446 0 14.2333 5.45664 15.8369 12.7568.0082.0581.0166.1167.0166.1748 0 .1079-.0163.2159-.0576.3155l-1.4219 3.7373c-1.1241 2.9401-4.3231 5.3573-7.2822 5.4902l-24.9365.3154c-.2479.0083-.4876.1989-.5704.4395-.0579.1578-.0327.3246.0499.4492.0826.1243.2227.1986.3876.207l24.7139.3164c1.306.0664 2.3807.5977 3.0254 1.503.7024.98.86 2.3255.4385 3.7705l-.3477 1.2207c-.0743.2573-.3055.432-.5615.4404h-.0166l-45.617186-.0088c-.239688 0-.44642-.1741-.479492-.415-.066124-.4983-.107422-.9968-.107422-1.5117.00009889-5.6558 4.48838-10.2655 10.084-10.4317-.20653-.8136-.28128-1.6687-.19045-2.5654.33885-3.4466 3.09145-6.22099 6.52145-6.56152 1.9341-.191 3.7277.37402 5.1329 1.42872 2.1737-6.43646 8.2406-11.07120758 15.3818-11.0713zm42.956 19.376c3.0582 0 5.4056 2.0103 5.9346 4.7011h-3.29c-.4133-1.0796-1.3967-1.8769-2.6778-1.8769-1.7026 0-2.8427 1.3957-2.8427 3.0234v.0332c.0002 1.6359 1.1735 3.0557 2.8759 3.0557 1.2233-.0001 2.1411-.7061 2.5791-1.6943v-.0078h3.2891c-.6117 2.591-2.9341 4.5263-5.9014 4.5263-3.4713 0-6.0417-2.5995-6.042-5.8467v-.0332c0-3.2473 2.6038-5.8808 6.0752-5.8808zm27.2843 0c3.471 0 6.042 2.6003 6.042 5.8476v.0332c0 3.2471-2.604 5.8799-6.075 5.8799-3.472-.0001-6.042-2.5996-6.042-5.8467v-.0332c0-3.2472 2.603-5.8808 6.075-5.8808zm13.026 6.5195c0 1.6278.818 2.4092 2.075 2.4092 1.256-.0002 2.074-.7401 2.074-2.3262v-6.3613h3.166v6.2705c0 3.6541-2.075 5.2489-5.274 5.249-3.198-.0166-5.207-1.6446-5.207-5.1826v-6.3457h3.166zm-65.1814-12.374c7.4555.0001 13.5059 6.0795 13.5059 13.5625 0 1.2788-.1743 2.5077-.5049 3.6787-.0662.2159-.2641.3652-.4873.3652h-18.8535c-.19-.0083-.3302-.2073-.2559-.3984l.3965-1.0381c1.1241-2.9401 4.3316-5.3491 7.2989-5.4902l5.4716-.3155c.2477-.0085.4876-.1989.5703-.4394.0497-.1578.0324-.3246-.0585-.4492-.0826-.1243-.2145-.1986-.3711-.2071l-5.2657-.3154c-1.3059-.0665-2.3807-.5986-3.0254-1.5039-.7023-.98-.859-2.3255-.4375-3.7705l.9747-3.3721c.033-.1244.1325-.2241.248-.2656.033-.0166.0663-.0244.1074-.0244.2314-.0083.4551-.0166.6865-.0166zm81.6124 6.0869c4.018 0 6.348 2.3258 6.348 5.5898v.0332c0 3.2639-2.364 5.6895-6.414 5.6895h-4.273v-11.3125zm58.082 0c1.719 0 2.909.4572 3.661 1.2295.662.6478 1 1.5199 1 2.6328v.0332c0 1.7275-.917 2.8737-2.314 3.4717l2.686 3.9453h-3.603l-2.265-3.4219h-1.372v3.4219h-3.116v-11.3125zm-102.3008 8.5635h5.4551v2.7402h-8.5713v-11.3037h3.1162zm64.1058-5.8223h-5.885v1.9268h5.323v2.5996h-5.323v4.0361h-3.124v-11.3037h9.009zm7.456 5.8223h5.447v2.7402h-8.563v-11.3037h3.116zm21.407 2.7402h-3.347l-.818-2.0176h-4.34l-.802 2.0176h-3.281l4.786-11.3867h3.008zm27.541-8.6377h-5.96v1.711h5.398v2.4667h-5.398v1.794h6.042v2.666h-9.133v-11.3037h9.051zm-105.781-.0742c-1.703.0001-2.844 1.3874-2.844 3.0234v.0332c0 1.6276 1.174 3.0557 2.877 3.0557 1.719 0 2.86-1.3865 2.86-3.0225v-.0332c0-1.6278-1.174-3.0566-2.893-3.0566zm28.267 5.9385h1.273c1.868 0 3.1-1.0302 3.1-2.8575v-.0332c0-1.8104-1.24-2.8574-3.1-2.8574h-1.273zm42.369-1.6866h2.529l-1.256-3.2138zm14.729-1.4121h2.058v-.0078c1.057 0 1.67-.5149 1.67-1.3369v-.0332c0-.8887-.645-1.3379-1.687-1.3379h-2.041z" fill="#7dcfff"/></g></svg>