<svg fill="none" height="32" viewBox="0 0 32 32" width="32" xmlns="http://www.w3.org/2000/svg">
  <path
    d="m16 0c8.84 0 16 7.16 16 16-.0009 3.3524-1.053 6.6201-3.0083 9.3432-1.9553 2.7232-4.7154 4.7645-7.8917 5.8368-.8.16-1.1-.34-1.1-.76 0-.54.02-2.26.02-4.4 0-1.5-.5-2.46-1.08-2.96 3.56-.4 7.3-1.76 7.3-7.9 0-1.76-.62-3.18-1.64-4.3.16-.4.72-2.04-.16-4.24 0 0-1.34-.44-4.4 1.64-1.28-.36-2.64-.54-4-.54s-2.72.18-4 .54c-3.06-2.06-4.4-1.64-4.4-1.64-.88 2.2-.32 3.84-.16 4.24-1.02 1.12-1.64 2.56-1.64 4.3 0 6.12 3.72 7.5 7.28 7.9-.46.4-.88 1.1-1.02 2.14-.92.42-3.22 1.1-4.66-1.32-.3-.48-1.2-1.66-2.46-1.64-1.34.02-.54.76.02 1.06.68.38 1.46 1.8 1.64 2.26.32.9 1.36 2.62 5.38 1.88 0 1.34.02 2.6.02 2.98 0 .42-.3.9-1.1.76-3.18672-1.0607-5.95853-3.098-7.92222-5.8227-1.96369-2.7248-3.01954096-5.9987-3.0177778-9.3573 0-8.84 7.1599978-16 15.9999978-16z"
    fill="currentColor" />
</svg>
