<svg fill="none" height="32" viewBox="0 0 32 32" width="32" xmlns="http://www.w3.org/2000/svg">
  <g fill="#000">
    <path
      d="m9.47363 4.01687c.77167.00015 1.39727.62585 1.39747 1.39747 0 .7718-.6257 1.39829-1.39747 1.39843h-4.625c-.66518.00006-1.17367.17068-1.52539.5127-.34225.34225-.51364.86071-.51367 1.55469v14.24194c0 .694.17139 1.2124.51367 1.5547.35173.3517.86001.5282 1.52539.5283h22.28807c.6561 0 1.1599-.1766 1.5117-.5283.3613-.3423.542-.8607.542-1.5547v-14.24194c0-.69398-.1807-1.21244-.542-1.55469-.3517-.34214-.8558-.5127-1.5117-.5127h-4.624c-.7719 0-1.3984-.62654-1.3984-1.39843.0002-.77171.6266-1.39747 1.3984-1.39747h4.8096c1.5402.00002 2.705.3903 3.4941 1.16993.789.77963 1.1836 1.93518 1.1836 3.46582v14.71258c0 1.5305-.3947 2.6853-1.1836 3.4649-.7891.7796-1.9539 1.1699-3.4941 1.1699h-22.64457c-1.54021 0-2.70501-.3903-3.49414-1.1699-.788897-.7796-1.18354196-1.9344-1.18359-3.4649v-14.71258c0-1.53064.394563-2.68619 1.18359-3.46582.78913-.77963 1.95393-1.16991 3.49414-1.16993z" />
    <path
      d="m16.0078 0c.3832.00005683.7111.136008.9834.408203.2825.27241.4238.590889.4238.954097v14.2481l-.1211 2.2548.8018-.9687 2.1494-2.2998c.2522-.2825.5652-.4238.9385-.4238.3429 0 .6358.1156.8779.3476.2522.2321.378.5203.378.8633-.0001.3328-.1314.6359-.3936.9082l-4.9785 4.7969c-.1816.1715-.3588.2926-.5303.3632-.1714.0706-.3478.1065-.5293.1065-.1816 0-.3587-.0358-.5303-.1065-.1714-.0706-.3533-.1918-.5449-.3632l-4.96385-4.7969c-.27233-.2723-.40812-.5754-.4082-.9082 0-.343.12114-.6312.36328-.8633.24207-.2319.53497-.3476.87797-.3476.3933 0 .711.1413.9531.4238l2.164 2.2998.8028.9687-.1211-2.2548v-14.2481c0-.363208.1358-.681687.4082-.954097.2824-.27226.6157-.408203.999-.408203z"
      fill="currentColor" />
  </g>
</svg>
