<svg fill="none" height="32" viewBox="0 0 32 32" width="32" xmlns="http://www.w3.org/2000/svg">
  <path
    d="m0 4.49992c0-.3978.158025-.77931.439312-1.0606s.662798-.43931 1.060598-.43931h8.50549c2.4538 0 4.6337 1.17992 5.9996 3.00181.6982-.9334 1.6047-1.69085 2.6474-2.212 1.0426-.52115 2.1926-.7916 3.3582-.78981h8.4895c.3978 0 .7793.15802 1.0606.43931s.4393.6628.4393 1.0606v20.99868c0 .3978-.158.7793-.4393 1.0606s-.6628.4393-1.0606.4393h-9.0134c-.591 0-1.1761.1164-1.722.3425-.546.2261-1.042.5576-1.4598.9754l-1.244 1.2419c-.2812.2809-.6624.4387-1.0599.4387s-.7787-.1578-1.0599-.4387l-1.244-1.2419c-.4178-.4178-.9138-.7493-1.4598-.9754-.5459-.2261-1.131-.3425-1.722-.3425h-9.01539c-.3978 0-.779311-.158-1.060598-.4393s-.439312-.6628-.439312-1.0606zm14.5011 20.64668.008-10.1453-.004-4.5058c-.0011-1.19267-.4756-2.33616-1.3194-3.17916-.8437-.84299-1.9876-1.31652-3.1803-1.31652h-7.00559v17.99888h7.51349c1.4108-.0001 2.793.3978 3.9878 1.1479zm3.0078-14.6471-.008 14.6431c1.1942-.7477 2.5748-1.1442 3.9838-1.1439h7.5135v-17.99888h-6.9896c-1.1934 0-2.3379.47408-3.1818 1.31794-.8438.84386-1.3179 1.98838-1.3179 3.18174z"
    fill="currentColor" />
</svg>
