<svg fill="none" height="32" viewBox="0 0 32 32" width="32" xmlns="http://www.w3.org/2000/svg">
  <path
    d="m9.82168 29.2319c-1.1259 0-1.96831-.2754-2.52721-.8262-.55081-.5427-.83431-1.373-.85051-2.4908l-.1458-11.9314-2.98892.6804c-.567.1215-1.03276.0689-1.39726-.1579-.3564-.2268-.60345-.6318-.74115-1.215l-1.0813612-4.31331c-.145801-.57511-.1134008-1.06111.0972002-1.45801.218702-.40501.603454-.72496 1.154261-.95986l8.55365-3.64502c.24302-.1053.47792-.1539.70472-.1458.2268 0 .4536.05265.6804.15795.5346.2511 1.0449.4617 1.5309.6318.4941.1701.9963.2997 1.5066.3888.5184.0891 1.0814.13365 1.6889.13365.5994 0 1.1542-.04455 1.6645-.13365.5184-.0891 1.0206-.2187 1.5066-.3888.4941-.1701 1.0085-.3807 1.5431-.6318.2268-.1053.4536-.15795.6804-.15795.2268-.0081.4617.0405.7047.1458l8.5537 3.64502c.5589.2349.9436.55485 1.1542.95986.2106.3969.243.8829.0972 1.45801l-1.0813 4.31331c-.1377.5832-.3888.9882-.7533 1.215-.3564.2268-.8181.2794-1.3851.1579l-2.9768-.6804-.158 11.9314c-.0162 1.1178-.3037 1.9481-.8626 2.4908-.5508.5508-1.3892.8262-2.5151.8262zm6.18442-21.35987c.6966 0 1.3203-.1134 1.8711-.3402.5508-.2349 1.0165-.56296 1.3972-.98416s.6724-.92341.8749-1.50661c-.6319.243-1.3042.4293-2.017.5589-.7047.1296-1.4134.19441-2.1262.19441-.7209 0-1.4378-.06481-2.1506-.19441-.7047-.1296-1.3729-.3159-2.0048-.5589.2106.5913.5063 1.09756.887 1.51876.3888.4212.8546.74521 1.3973.97201.5508.2268 1.1745.3402 1.8711.3402z"
    fill="currentColor" />
</svg>
