<svg fill="none" height="32" viewBox="0 0 32 32" width="32" xmlns="http://www.w3.org/2000/svg">
  <path
    d="m28.46 2.00391c1.1044 0 1.9687.31157 2.5918.93457.6324.62296.9481 1.49175.9482 2.60547v15.91605c0 1.1139-.3115 1.9824-.9346 2.6054-.6324.623-1.501.9346-2.6054.9346h-7.837v2.4229h1.0713c.3587 0 .6609.1227.9063.3681.2452.2548.3681.5615.3682.9199 0 .3492-.123.6515-.3682.9063-.2454.2548-.5476.3827-.9063.3828h-11.374c-.35871 0-.666-.1279-.92089-.3828-.24523-.2548-.36816-.5571-.36816-.9063.00009-.3584.12292-.6651.36816-.9199.25489-.2454.56218-.3681.92089-.3681h1.0703v-2.4229h-7.84665c-1.10431 0-1.96783-.3117-2.590825-.9346-.632481-.623-.9492125-1.4915-.94921875-2.6054v-15.91605c.00008533-1.11372.31160875-1.98251.93457075-2.60547.632443-.62293 1.501143-.93454 2.605473-.93457zm-24.7598 2.71875c-.29257 0-.52867.09026-.70801.26953-.17928.16984-.26945.41038-.26953.72168v15.57613c0 .3115.09022.5518.26953.7217.17936.1794.41536.2695.70801.2695h24.6045c.2925 0 .5287-.0902.708-.2695.1791-.1699.2685-.4104.2685-.7217v-15.57613c0-.3112-.0893-.55185-.2685-.72168-.1793-.1793-.4155-.26947-.708-.26953z"
    fill="currentColor" />
</svg>
